<svg viewBox="0 0 136 50" xmlns="http://www.w3.org/2000/svg"><g fill="none"><path d="m14.346 32.565v-15.749c0-1.94.33-3.388.99-4.343.661-.955 1.66-1.432 2.999-1.432.777 0 1.482.215 2.118.644.637.428 1.202 1.08 1.697 1.954.826-.89 1.759-1.545 2.8-1.966s2.24-.632 3.593-.632c1.718 0 3.237.307 4.558.923 1.322.614 2.462 1.537 3.42 2.767 1.205-1.31 2.437-2.255 3.691-2.828 1.256-.573 2.71-.862 4.362-.862 2.857 0 5.079.899 6.664 2.694 1.586 1.796 2.378 4.328 2.378 7.595v11.235c0 1.926-.33 3.358-.99 4.296-.661.938-1.669 1.407-3.023 1.407-1.355 0-2.354-.465-2.999-1.395-.644-.93-.966-2.366-.966-4.308v-8.855c0-2.054-.294-3.559-.88-4.514-.586-.954-1.506-1.431-2.763-1.431-1.387 0-2.403.47-3.046 1.408-.644.938-.967 2.418-.967 4.44v8.954c0 1.925-.33 3.357-.99 4.296-.663.938-1.67 1.407-3.024 1.407-1.355 0-2.363-.469-3.023-1.407-.661-.94-.991-2.371-.991-4.296v-8.857c0-2.07-.29-3.58-.867-4.527-.579-.946-1.487-1.418-2.726-1.418-1.387 0-2.402.47-3.047 1.407-.644.938-.966 2.418-.966 4.44v8.954c0 1.925-.331 3.357-.991 4.296-.661.938-1.669 1.407-3.023 1.407-1.355 0-2.358-.469-3.01-1.407-.652-.94-.978-2.373-.978-4.297zm61.842 2.086c-.874 1.23-1.916 2.148-3.122 2.754-1.205.607-2.584.91-4.136.91-3.238 0-5.977-1.302-8.214-3.907-2.24-2.604-3.358-5.84-3.358-9.707 0-3.898 1.206-7.182 3.617-9.851 2.412-2.668 5.352-4.004 8.82-4.005 1.355 0 2.557.228 3.605.681 1.05.453 1.978 1.158 2.787 2.111.43-.777.963-1.388 1.6-1.832.634-.445 1.283-.668 1.944-.668 1.37 0 2.382.466 3.036 1.396.65.93.98 2.358.98 4.282v15.749c0 2.895-.146 5.156-.434 6.781-.29 1.626-.773 2.973-1.451 4.041-1.171 1.925-2.787 3.385-4.842 4.38-2.057.995-4.498 1.492-7.324 1.492-3.451 0-6.267-.542-8.448-1.625-2.18-1.085-3.27-2.451-3.27-4.101 0-.987.326-1.805.979-2.452.652-.645 1.473-.97 2.464-.97.48 0 1.632.348 3.456 1.043 1.826.696 3.532 1.043 5.117 1.043 1.984 0 3.519-.574 4.61-1.722 1.088-1.15 1.633-2.775 1.633-4.878 0-.097-.008-.25-.024-.46a6.85 6.85 0 0 1 -.025-.485zm-10.554-9.951c0 1.958.486 3.544 1.461 4.756.975 1.214 2.23 1.82 3.766 1.82s2.8-.61 3.79-1.83c.99-1.222 1.487-2.803 1.487-4.745 0-1.893-.497-3.433-1.487-4.622-.99-1.19-2.255-1.784-3.79-1.784s-2.792.595-3.766 1.784c-.975 1.19-1.461 2.73-1.461 4.622zm23.463 2.549v-10.433c0-1.925.33-3.351.99-4.282.662-.931 1.67-1.396 3.023-1.396 1.338 0 2.334.465 2.986 1.396.653.93.979 2.357.979 4.282v8.833c0 2.087.322 3.564.966 4.427.645.867 1.693 1.3 3.148 1.3 1.454 0 2.502-.433 3.147-1.3.643-.865.965-2.34.965-4.427v-8.833c0-1.925.327-3.351.98-4.282.652-.931 1.664-1.396 3.035-1.396 1.337 0 2.328.462 2.973 1.383.644.923.966 2.354.966 4.295v10.434c0 3.722-1.032 6.564-3.097 8.53-2.064 1.965-5.055 2.947-8.969 2.947-3.915 0-6.908-.982-8.981-2.948-2.074-1.965-3.11-4.809-3.11-8.529zm29.608 5.315v-15.748c0-1.925.327-3.351.98-4.282.652-.931 1.655-1.396 3.01-1.396.81 0 1.526.207 2.155.618.627.414 1.181 1.04 1.659 1.882.828-.873 1.702-1.533 2.627-1.978.926-.445 1.858-.667 2.8-.667 1.106 0 2.06.383 2.86 1.152.803.769 1.203 1.678 1.203 2.73 0 1.568-1.469 2.88-4.41 3.93-1.057.373-1.85.68-2.379.923-1.007.47-1.676.991-2.006 1.565-.331.574-.496 1.614-.496 3.118v8.153c0 1.925-.33 3.357-.99 4.295-.662.94-1.67 1.407-3.023 1.407-1.355 0-2.358-.468-3.01-1.407-.653-.937-.98-2.37-.98-4.294zm-110.132 0c0 1.94-.322 3.377-.967 4.307-.644.93-1.635 1.395-2.973 1.395-1.354 0-2.362-.47-3.023-1.407-.66-.938-.99-2.37-.99-4.295v-15.748c0-1.925.326-3.351.978-4.282s1.663-1.396 3.035-1.396c1.338 0 2.33.465 2.974 1.396.645.93.966 2.357.966 4.282v15.749z" fill="#000"/><path d="m0 4.538c0-1.245.453-2.313 1.362-3.203.908-.89 1.998-1.334 3.271-1.334 1.255 0 2.33.445 3.22 1.334.894.89 1.339 1.958 1.339 3.203 0 1.262-.443 2.33-1.326 3.204-.884.873-1.96 1.309-3.233 1.309-1.305 0-2.403-.436-3.295-1.31-.892-.873-1.338-1.941-1.338-3.202z" fill="#89c623"/></g></svg>