<svg viewBox="0 0 500 500" xmlns="http://www.w3.org/2000/svg"><circle cx="250" cy="250" fill="#e51937" r="182.5"/><g fill="#fff"><path d="m402.53 278.31a5.31 5.31 0 0 0 -2.31-2.21 6 6 0 0 0 -6.08 0 6.7 6.7 0 0 0 -2.31 2.21 6.07 6.07 0 0 0 -.83 3 6.41 6.41 0 0 0 .83 3.14 5.36 5.36 0 0 0 2.31 2.21 6 6 0 0 0 6.08 0 7.48 7.48 0 0 0 2.31-2.21 6.17 6.17 0 0 0 .83-3.14 6.07 6.07 0 0 0 -.83-3zm-.83 5.69a4.16 4.16 0 0 1 -1.94 1.84 5.45 5.45 0 0 1 -5.16 0 5.09 5.09 0 0 1 -2.68-4.52 5 5 0 0 1 .74-2.58 4.87 4.87 0 0 1 1.94-1.93 4.87 4.87 0 0 1 5.16 0 4.87 4.87 0 0 1 1.94 1.93 5.23 5.23 0 0 1 .74 2.58 6.55 6.55 0 0 1 -.74 2.68z"/><path d="m183 212.19a80.11 80.11 0 0 0 -34.86 4.15c-17.06 6-39.93 20.56-50.72 56.53-1.85 6.09 0 14.29 12.63 13.19h47.13a9.59 9.59 0 1 0 0-19.18h-37.12c14-29.88 38.92-35.32 51.92-36v45.93a9.59 9.59 0 0 0 19.18 0v-55.12a9.55 9.55 0 0 0 -8.16-9.5z"/><path d="m279.69 212.1c-12 .27-19.82 4.15-25.45 10.23-5.07-5.62-13.74-10.32-25.45-10.23-13.1-.92-35.78 10.88-34.12 32.18v32.56a9.59 9.59 0 0 0 19.18 0v-32.47c.09-11.25 12.17-13 14.94-13.09 13.65-.37 15.68 11.43 15.68 13.09v32.47a9.78 9.78 0 0 0 19.55 0v-32.47c.55-12 11.89-13.27 15.67-13.09 2.22.18 14.3.83 14.94 13.09v32.47a9.6 9.6 0 0 0 19.19 0v-32.56c.36-1.84-1.11-31.17-34.13-32.18z"/><path d="m389.62 255.26a9.56 9.56 0 0 0 -12.91 4.24 20.75 20.75 0 0 1 -18.54 11.34 20.75 20.75 0 0 1 0-41.5c8.39 0 16.05 4.71 19 11.62a9.6 9.6 0 0 0 17.61-7.65c-6-13.83-20.75-23.15-36.61-23.15a40 40 0 0 0 -39.93 39.93 39.93 39.93 0 0 0 75.53 18.08 9.48 9.48 0 0 0 -4.15-12.91z"/><path d="m398.93 282.92a2.72 2.72 0 0 0 -.83-1.1 2.3 2.3 0 0 0 1.11-.93 2 2 0 0 0 .37-1.2 1.83 1.83 0 0 0 -.28-1 1.88 1.88 0 0 0 -.74-.74 2.6 2.6 0 0 0 -1.38-.27h-2.4v7.56h1.22v-3.24h.92c.1 0 .37.28.65.74l.28.46 1 1.94h1.38zm-2.12-1.84h-.81v-2.58h.92a2.09 2.09 0 0 1 .93.18.92.92 0 0 1 .36.46 1.1 1.1 0 0 1 .1.55 1.23 1.23 0 0 1 -.37.93c-.21.38-.58.46-1.13.46z"/></g></svg>