<svg viewBox="0 0 255.12 255.12" xmlns="http://www.w3.org/2000/svg"><path d="m49.57 188 3.87-3.27 6.43 7.61 2.23-1.89-8.62-10.19-14.76 12.51 2.19 2.59 6.55-5.54 5.65 6.68 2.11-1.78zm19.37-145.79a11.86 11.86 0 0 0 2.37 3.19 9.69 9.69 0 0 0 3.11 2 8.52 8.52 0 0 0 3.58.6 9.84 9.84 0 0 0 6.9-3.58 8.55 8.55 0 0 0 1.58-3.28 9.74 9.74 0 0 0 .14-3.7 12 12 0 0 0 -1.24-3.78 11.85 11.85 0 0 0 -2.38-3.15 9.74 9.74 0 0 0 -3.1-2 8.71 8.71 0 0 0 -3.59-.61 9.69 9.69 0 0 0 -6.9 3.58 8.68 8.68 0 0 0 -1.57 3.29 9.66 9.66 0 0 0 -.14 3.7 11.82 11.82 0 0 0 1.24 3.74zm1.89-6.7a5.22 5.22 0 0 1 .86-2.32 6 6 0 0 1 4.74-2.46 5.25 5.25 0 0 1 2.39.64 7.52 7.52 0 0 1 2 1.62 11 11 0 0 1 2.49 4.81 7.49 7.49 0 0 1 .17 2.58 5.23 5.23 0 0 1 -.85 2.32 6 6 0 0 1 -4.73 2.46 5.25 5.25 0 0 1 -2.39-.64 7.56 7.56 0 0 1 -2-1.62 11.06 11.06 0 0 1 -2.51-4.81 7.48 7.48 0 0 1 -.17-2.58zm-13.63 29.22-10-11.1 14 7.52 2.08-1.86-6-14.69 10 11.1 2.4-2.15-12.86-14.45-3.51 3.15 6.25 14.75-14.08-7.7-3.59 3.2 12.91 14.39zm44-26.09 1-20.4-3.2.95-.6 16.07h-.05l-8.86-13.36-3.38 1 11.5 16.78zm84 16.12 1.63-2.43-8.9-6 3.15-4.7 8.09 5.43 1.54-2.29-8.09-5.43 2.82-4.2 8.77 5.86 1.63-2.43-11.55-7.76-10.78 16.09zm-19.2-11.76a6.4 6.4 0 0 0 2.48-.25 4.33 4.33 0 0 0 1.81-1.13 5.51 5.51 0 0 0 1.15-1.83 5.6 5.6 0 0 0 .34-3.4 4.24 4.24 0 0 0 -1.91-2.56v-.05a4.63 4.63 0 0 0 2.49-.75 4.33 4.33 0 0 0 1.64-2.09 4.23 4.23 0 0 0 -.15-3.92 6.72 6.72 0 0 0 -3.45-2.63l-8.79-3.39-7.05 18 8.27 3.24a11 11 0 0 0 3.17.76zm-2.23-18.22 5.14 2a3.28 3.28 0 0 1 1.75 1.33 2.53 2.53 0 0 1 -.07 2.18 2.48 2.48 0 0 1 -1.48 1.56 3 3 0 0 1 -2.14-.1l-5.14-2zm-2.85 7.22 5.57 2.18a3.43 3.43 0 0 1 1.95 1.59 2.82 2.82 0 0 1 0 2.37 2.94 2.94 0 0 1 -1.62 1.79 3.37 3.37 0 0 1 -2.52-.13l-5.57-2.18zm-26.33-11.69h.05l3.31 15.5 2.76.37 7.29-14.05h.05l-2 14.78 3.19.43 2.59-19.16-4.67-.63-7.16 14.32-3.25-15.72-4.75-.65-2.6 19.16 3.19.43zm-9.59 14.69-.24-2.91-10.67.91-.46-5.64 9.72-.79-.23-2.75-9.72.8-.41-5 10.5-.86-.24-2.91-13.87 1.13 1.62 19.17zm66.14 24.75 5.65-5.61 3.51 3.54a5.14 5.14 0 0 1 1.13 1.56 2.5 2.5 0 0 1 .17 1.49 4 4 0 0 1 -.71 1.55 14.15 14.15 0 0 1 -1.5 1.72c-.33.33-.66.69-1 1.08a3.17 3.17 0 0 0 -.66 1.29l2.56 2.63a4.07 4.07 0 0 1 .85-2 17.23 17.23 0 0 1 2-2.37 5.38 5.38 0 0 0 1.14-1.54 3.7 3.7 0 0 0 .37-1.38 2.77 2.77 0 0 0 -.17-1.15 3.5 3.5 0 0 0 -.47-.86q.23.12.77.32a3.71 3.71 0 0 0 1.32.2 5 5 0 0 0 1.7-.36 5.61 5.61 0 0 0 1.91-1.32 4.82 4.82 0 0 0 1.6-3.84 7.18 7.18 0 0 0 -2.4-4.38l-6.5-6.55-13.64 13.58zm11.76-11.67 3.87 3.9a7.17 7.17 0 0 1 .81 1 2.75 2.75 0 0 1 .46 1.07 2.21 2.21 0 0 1 -.12 1.17 3.63 3.63 0 0 1 -.88 1.25 3 3 0 0 1 -2.23 1 3.51 3.51 0 0 1 -2.28-1.2l-3.91-3.94zm6.14 74.16-.83 4.57-8.75 5.67-38.12-24.2-13.34-1.71-6.44 1.51-6.64 3.45-5.49 4.31-1.93 1.05h-.5l-9.42-6.68-4.92-2.21-4.72-1.24h-5.8l-9 1.54-38.14 24.18-7-5.38-.25-18-12.18 30.16 27.25 9.93 22.92-4.19 21.33-.36 18.56-6.55 1.24-.83.36-.06.36.06 1.24.83 18.56 6.55 21.33.36 22.92 4.14 27.25-9.92-8.35-32.31zm-9.18 60.42 10.88 9.19-16.57-2.46-2.31 2.73 14.76 12.48 2.08-2.46-10.87-9.14.05-.06 16.54 2.46 2.31-2.73-14.73-12.46zm-4.38 19.34a12 12 0 0 0 -2.94-2.64 9.83 9.83 0 0 0 -3.44-1.36 8.74 8.74 0 0 0 -3.64.12 9.71 9.71 0 0 0 -6.06 4.88 8.71 8.71 0 0 0 -.89 3.53 9.73 9.73 0 0 0 .6 3.66 11.84 11.84 0 0 0 1.95 3.43 12 12 0 0 0 3 2.66 9.73 9.73 0 0 0 3.44 1.36 8.56 8.56 0 0 0 3.63-.13 9.83 9.83 0 0 0 6.05-4.88 8.53 8.53 0 0 0 .9-3.52 9.81 9.81 0 0 0 -.6-3.66 12 12 0 0 0 -2-3.45zm-.91 9.39a6 6 0 0 1 -4.16 3.35 5.21 5.21 0 0 1 -2.47-.15 7.48 7.48 0 0 1 -2.3-1.19 10.93 10.93 0 0 1 -3.4-4.22 7.56 7.56 0 0 1 -.67-2.5 5.27 5.27 0 0 1 .38-2.44 6 6 0 0 1 4.16-3.34 5.23 5.23 0 0 1 2.47.15 7.55 7.55 0 0 1 2.3 1.19 11 11 0 0 1 3.4 4.22 7.47 7.47 0 0 1 .72 2.54 5.22 5.22 0 0 1 -.43 2.42zm22.75-137.54a2 2 0 0 0 .63-1.65 2.18 2.18 0 0 0 -.71-1.79 3.42 3.42 0 0 0 -2.19-.59h-3.21v8.31h1.29v-3.57h1.37l2.26 3.57h1.39l-2.38-3.67a2.82 2.82 0 0 0 1.55-.61zm-2.85-.34h-1.35v-2.63h1.71a4.79 4.79 0 0 1 .66 0 1.91 1.91 0 0 1 .59.18 1.14 1.14 0 0 1 .42.38 1.22 1.22 0 0 1 .16.67 1.44 1.44 0 0 1 -.18.77 1.15 1.15 0 0 1 -.49.41 2.19 2.19 0 0 1 -.7.17zm-46.27 135.62 9.44 16.87 3-1.65-9.43-16.88zm-40.64-209.13a127.56 127.56 0 1 0 127.56 127.56 127.7 127.7 0 0 0 -127.56-127.56zm0 252.73a125.17 125.17 0 1 1 125.17-125.17 125.31 125.31 0 0 1 -125.17 125.17zm93.6-181.57a7.19 7.19 0 0 0 -9.32-3.73 7.12 7.12 0 0 0 -2.28 1.49 7 7 0 0 0 -1.56 2.24 6.77 6.77 0 0 0 -.57 2.8 6.89 6.89 0 0 0 .57 2.84 7 7 0 0 0 3.83 3.75 7.45 7.45 0 0 0 5.52 0 7 7 0 0 0 2.26-1.49 7.13 7.13 0 0 0 1.54-2.26 7 7 0 0 0 .57-2.84 6.93 6.93 0 0 0 -.56-2.8zm-1.16 5.22a6.07 6.07 0 0 1 -1.24 1.93 5.8 5.8 0 0 1 -1.86 1.28 5.69 5.69 0 0 1 -2.3.47 5.78 5.78 0 0 1 -4.19-1.75 5.92 5.92 0 0 1 -1.23-1.93 6.41 6.41 0 0 1 -.45-2.42 6.21 6.21 0 0 1 .45-2.38 5.83 5.83 0 0 1 1.23-1.91 5.93 5.93 0 0 1 1.86-1.28 5.83 5.83 0 0 1 2.33-.46 5.69 5.69 0 0 1 2.3.46 5.92 5.92 0 0 1 1.86 1.28 6 6 0 0 1 1.24 1.91 6.32 6.32 0 0 1 .45 2.38 6.53 6.53 0 0 1 -.45 2.42zm-145.85 128a8.71 8.71 0 0 0 -.89-3.54 9.68 9.68 0 0 0 -6.06-4.84 8.7 8.7 0 0 0 -3.64-.12 9.72 9.72 0 0 0 -3.44 1.36 11.89 11.89 0 0 0 -2.94 2.64 12 12 0 0 0 -2 3.46 9.74 9.74 0 0 0 -.6 3.66 8.53 8.53 0 0 0 .9 3.52 9.85 9.85 0 0 0 6.05 4.87 8.56 8.56 0 0 0 3.63.13 9.8 9.8 0 0 0 3.44-1.36 12.34 12.34 0 0 0 4.95-6.16 9.74 9.74 0 0 0 .6-3.63zm-3.07.15a7.48 7.48 0 0 1 -.67 2.5 11 11 0 0 1 -3.4 4.22 7.59 7.59 0 0 1 -2.3 1.19 5.23 5.23 0 0 1 -2.47.15 6 6 0 0 1 -4.16-3.34 5.29 5.29 0 0 1 -.38-2.44 7.52 7.52 0 0 1 .67-2.5 10.92 10.92 0 0 1 3.4-4.22 7.48 7.48 0 0 1 2.3-1.19 5.22 5.22 0 0 1 2.47-.15 6 6 0 0 1 4.15 3.35 5.24 5.24 0 0 1 .38 2.41zm35.16 26.23h-.05l-5.19-15.96-3.49-.8-4.58 18.78 3.13.76 3.37-13.81h.08l5.18 15.9 3.47.85 4.59-18.78-3.13-.76zm-15.46-20-4.78 10.24q-.41.88-.92 1.75a4.49 4.49 0 0 1 -1.25 1.4 3.44 3.44 0 0 1 -1.78.62 6.61 6.61 0 0 1 -4.64-2.16 3.47 3.47 0 0 1 -.67-1.76 4.52 4.52 0 0 1 .26-1.85q.34-.95.75-1.83l4.76-10.21-3.07-1.43-5.21 11.17a8.55 8.55 0 0 0 -.86 3.18 6.28 6.28 0 0 0 .48 2.78 6.68 6.68 0 0 0 1.68 2.34 11.7 11.7 0 0 0 5.89 2.75 6.72 6.72 0 0 0 2.86-.2 6.25 6.25 0 0 0 2.44-1.42 8.54 8.54 0 0 0 1.89-2.7l5.23-11.21zm40.11 10.76a7.14 7.14 0 0 0 -2.63-2.1 9 9 0 0 0 -3.83-.81l-8-.1-.24 19.33 8 .1a9 9 0 0 0 3.85-.71 7.12 7.12 0 0 0 2.68-2 8.8 8.8 0 0 0 1.57-3.06 14.38 14.38 0 0 0 .1-7.52 8.85 8.85 0 0 0 -1.5-3.12zm-1.73 9.54a5.28 5.28 0 0 1 -1 2.18 4.72 4.72 0 0 1 -2 1.44 8.43 8.43 0 0 1 -3.24.49h-3.33l.17-13.81h3.33a8.46 8.46 0 0 1 3.23.57 4.73 4.73 0 0 1 2 1.49 5.26 5.26 0 0 1 .95 2.21 13.57 13.57 0 0 1 .22 2.72 13.34 13.34 0 0 1 -.33 2.71zm12.09-13.35-3.65 20.38 3.43-.66.82-5.37 7.58-1.45 2.74 4.68 3.56-.68-11-17.59zm1 11.66 1.31-8.71h.08l4.41 7.62zm23.87-15.89-1-2.73-14.63 5.56 1 2.73 5.72-2.17 5.83 15.33 3.16-1.2-5.83-15.33z" fill="#231f20"/></svg>