<?xml version="1.0" encoding="utf-8"?>
<!-- Generator: Adobe Illustrator 24.2.3, SVG Export Plug-In . SVG Version: 6.00 Build 0)  -->
<svg version="1.1" id="Layer_1" xmlns="http://www.w3.org/2000/svg" xmlns:xlink="http://www.w3.org/1999/xlink" x="0px" y="0px"
	 viewBox="0 0 248 148" style="enable-background:new 0 0 248 148;" xml:space="preserve">
<style type="text/css">
	.st0{clip-path:url(#SVGID_2_);}
	.st1{fill:#3B5159;}
	.st2{fill-rule:evenodd;clip-rule:evenodd;fill:#FF9770;}
	.st3{fill-rule:evenodd;clip-rule:evenodd;fill:#C9DBE6;}
	.st4{fill-rule:evenodd;clip-rule:evenodd;fill:#80718F;}
	.st5{fill:#FFFFFF;}
	.st6{fill:#E5E5E5;}
	.st7{fill:#F9F9F9;}
	.st8{fill:#EFEFEF;}
	.st9{fill:#007AF4;}
	.st10{fill:#DBDBDB;}
	.st11{fill:#505050;}
	.st12{fill:#FF6700;}
	.st13{fill:#585858;}
	.st14{fill:#8F8F8F;}
	.st15{fill:#3D5A66;}
	.st16{fill:#273B42;}
	.st17{fill:#0B3E4D;}
	.st18{fill:#697F92;}
	.st19{opacity:0.13;fill:none;stroke:#FFFFFF;enable-background:new    ;}
	.st20{fill:url(#SVGID_3_);}
	.st21{fill:url(#SVGID_4_);}
	.st22{fill:#DAE7F0;}
	.st23{fill-rule:evenodd;clip-rule:evenodd;fill:#FF6229;}
	.st24{fill:#FF6C37;}
	.st25{fill:none;stroke:#E24F30;stroke-width:3;stroke-linecap:square;}
	.st26{fill:none;stroke:#F99D78;stroke-width:3;}
	.st27{fill:none;stroke:#F99D78;stroke-width:3;stroke-linecap:square;}
</style>
<g>
	<defs>
		<rect id="SVGID_1_" x="3" y="1.5" width="242" height="145"/>
	</defs>
	<clipPath id="SVGID_2_">
		<use xlink:href="#SVGID_1_"  style="overflow:visible;"/>
	</clipPath>
	<g class="st0">
		<path class="st1" d="M244.6,54.2c5.7,72.8-56,97.1-170.9,91.5C28.7,143.5,5.1,99.8,3,62.5C1.6,37.1,46,17.2,57.4,15.6
			c27.5-3.7,26.4-13.7,66.4-14.1c29.8-0.3,40.9,4.2,87.5,17.3C241.7,27.3,243.2,36.3,244.6,54.2z"/>
		<path class="st2" d="M219,58.5l-2.4,6.6l-6.6,2.4l6.6,2.5l2.4,6.6l2.4-6.6l6.6-2.4l-6.6-2.4L219,58.5z"/>
		<path class="st3" d="M101,120.5l-2.4,6.6l-6.6,2.4l6.6,2.5l2.4,6.6l2.4-6.6l6.6-2.4l-6.6-2.4L101,120.5z"/>
		<path class="st4" d="M210,33.5l-1.6,4.4l-4.4,1.6l4.4,1.6l1.6,4.4l1.6-4.4l4.4-1.6l-4.4-1.6L210,33.5z"/>
		<path class="st4" d="M20,63.5l-1.6,4.4L14,69.5l4.4,1.6l1.6,4.4l1.6-4.4l4.4-1.6l-4.4-1.6L20,63.5z"/>
		<path class="st5" d="M37.6,10.5h154.9l1.6,8.6v89.8c0,0.4-0.2,0.8-0.5,1.1c-0.3,0.3-0.7,0.5-1.1,0.5H37.6c-0.4,0-0.8-0.2-1.1-0.5
			c-0.3-0.3-0.5-0.7-0.5-1.1V19.1C36,18.3,40.7,10.5,37.6,10.5z"/>
		<path class="st6" d="M193.9,28.4H76.3v76.5h117.6V28.4z"/>
		<path class="st7" d="M193.9,48.7H76.3v18.7h117.6V48.7z"/>
		<path class="st7" d="M193.9,74.5H76.3v30.4h117.6V74.5z"/>
		<path class="st6" d="M77.9,25.3c0-0.2,0.1-0.4,0.2-0.6c0.1-0.1,0.3-0.2,0.6-0.2h14.2c0.2,0,0.4,0.1,0.6,0.2
			c0.1,0.1,0.2,0.3,0.2,0.6v3.1H77.9V25.3z"/>
		<path class="st8" d="M94.4,25.3c0-0.2,0.1-0.4,0.2-0.6c0.1-0.1,0.3-0.2,0.6-0.2h14.2c0.2,0,0.4,0.1,0.6,0.2
			c0.1,0.1,0.2,0.3,0.2,0.6v3.1H94.4V25.3z"/>
		<path class="st8" d="M111,25.3c0-0.2,0.1-0.4,0.2-0.6c0.1-0.1,0.3-0.2,0.6-0.2H126c0.2,0,0.4,0.1,0.6,0.2c0.1,0.1,0.2,0.3,0.2,0.6
			v3.1H111V25.3z"/>
		<path class="st8" d="M127.6,25.3c0-0.2,0.1-0.4,0.2-0.5c0.1-0.1,0.3-0.2,0.5-0.2h14.2c0.1,0,0.2,0,0.3,0.1c0.1,0,0.2,0.1,0.3,0.2
			c0.1,0.1,0.1,0.2,0.2,0.3s0.1,0.2,0.1,0.3v3.1h-15.8V25.3z"/>
		<path class="st5" d="M159.9,32.3H81.8c-0.4,0-0.8,0.4-0.8,0.8v4.7c0,0.4,0.4,0.8,0.8,0.8h78.2c0.4,0,0.8-0.4,0.8-0.8v-4.7
			C160.7,32.7,160.4,32.3,159.9,32.3z"/>
		<path class="st9" d="M174.9,32.3h-9.5c-0.4,0-0.8,0.4-0.8,0.8v4.7c0,0.4,0.4,0.8,0.8,0.8h9.5c0.4,0,0.8-0.4,0.8-0.8v-4.7
			C175.7,32.7,175.4,32.3,174.9,32.3z"/>
		<path class="st10" d="M189.1,32.3h-9.5c-0.4,0-0.8,0.4-0.8,0.8v4.7c0,0.4,0.4,0.8,0.8,0.8h9.5c0.4,0,0.8-0.4,0.8-0.8v-4.7
			C189.9,32.7,189.6,32.3,189.1,32.3z"/>
		<path class="st8" d="M76.3,17.5H36v87.4h40.3V17.5z"/>
		<path class="st5" d="M41.1,22.2h29.3c0.7,0,1.4,0.3,1.9,0.8c0.5,0.5,0.8,1.2,0.8,1.9c0,0.4-0.1,0.7-0.2,1
			c-0.1,0.3-0.3,0.6-0.6,0.9c-0.3,0.3-0.6,0.5-0.9,0.6c-0.3,0.1-0.7,0.2-1,0.2H41.1c-0.4,0-0.7-0.1-1-0.2s-0.6-0.3-0.9-0.6
			c-0.3-0.3-0.5-0.6-0.6-0.9c-0.1-0.3-0.2-0.7-0.2-1l0,0c0-0.4,0.1-0.7,0.2-1s0.3-0.6,0.6-0.9c0.3-0.3,0.6-0.5,0.9-0.6
			C40.4,22.3,40.8,22.2,41.1,22.2L41.1,22.2z"/>
		<path class="st7" d="M76.3,35.5H36v69.4h40.3V35.5z"/>
		<path class="st10" d="M40.8,38.6h-2.4v2.3h2.4V38.6z"/>
		<path class="st10" d="M70,38.6h-26v2.3h26V38.6z"/>
		<path class="st8" d="M76.3,44H36v0.8h40.3V44z"/>
		<path class="st10" d="M40.8,47.9h-2.4v2.3h2.4V47.9z"/>
		<path class="st10" d="M70,47.9h-26v2.3h26V47.9z"/>
		<path class="st8" d="M76.3,53.4H36v0.8h40.3V53.4z"/>
		<path class="st10" d="M40.8,57.3h-2.4v2.3h2.4V57.3z"/>
		<path class="st10" d="M70,57.3h-26v2.3h26V57.3z"/>
		<path class="st8" d="M76.3,62.8H36v0.8h40.3V62.8z"/>
		<path class="st8" d="M110.2,48.7h-0.8v18.7h0.8V48.7z"/>
		<path class="st10" d="M40.8,66.7h-2.4V69h2.4V66.7z"/>
		<path class="st10" d="M70,66.7h-26V69h26V66.7z"/>
		<path class="st8" d="M76.3,72.1H36v0.8h40.3V72.1z"/>
		<path class="st11" d="M193.9,9.7H36v9.4h157.9V9.7z"/>
		<path class="st8" d="M193.9,104.1H36v6.2h157.9V104.1z"/>
		<path class="st12" d="M47.1,12h-7.9c-0.4,0-0.8,0.4-0.8,0.8v3.1c0,0.4,0.4,0.8,0.8,0.8h7.9c0.4,0,0.8-0.4,0.8-0.8v-3.1
			C47.9,12.4,47.5,12,47.1,12z"/>
		<path class="st13" d="M56.5,12h-6.3c-0.4,0-0.8,0.4-0.8,0.8v3.1c0,0.4,0.4,0.8,0.8,0.8h6.3c0.4,0,0.8-0.4,0.8-0.8v-3.1
			C57.3,12.4,57,12,56.5,12z"/>
		<path class="st13" d="M66,12h-6.3c-0.4,0-0.8,0.4-0.8,0.8v3.1c0,0.4,0.4,0.8,0.8,0.8H66c0.4,0,0.8-0.4,0.8-0.8v-3.1
			C66.8,12.4,66.4,12,66,12z"/>
		<path class="st14" d="M126,12.8h-22.1c-0.4,0-0.8,0.4-0.8,0.8v1.6c0,0.4,0.4,0.8,0.8,0.8H126c0.4,0,0.8-0.4,0.8-0.8v-1.6
			C126.8,13.2,126.4,12.8,126,12.8z"/>
		<path class="st10" d="M88.1,44.8h-9.5v2.3h9.5V44.8z"/>
		<path class="st10" d="M104.7,55.7H81c-0.4,0-0.8,0.4-0.8,0.8v2.3c0,0.4,0.4,0.8,0.8,0.8h23.7c0.4,0,0.8-0.4,0.8-0.8v-2.3
			C105.5,56.1,105.1,55.7,104.7,55.7z"/>
		<path class="st10" d="M51,30.8H40.8v2.3H51V30.8z"/>
		<path class="st10" d="M70.7,30.8H60.5v2.3h10.3V30.8z"/>
		<path class="st10" d="M88.1,69.8h-9.5v2.3h9.5V69.8z"/>
		<path class="st10" d="M100.7,69.8h-6.3v2.3h6.3V69.8z"/>
		<path class="st10" d="M112.6,69.8h-6.3v2.3h6.3V69.8z"/>
		<path class="st10" d="M124.4,69.8h-6.3v2.3h6.3V69.8z"/>
		<path class="st10" d="M176.5,55h-48.9v2.3h48.9V55z"/>
		<path class="st10" d="M160.7,59.6h-17.4V62h17.4V59.6z"/>
		<path class="st10" d="M96,82.3H78.6v2.3H96V82.3z"/>
		<path class="st10" d="M111.8,86.9H78.6v2.3h33.2V86.9z"/>
		<path class="st10" d="M135.5,91.6H78.6V94h56.8V91.6z"/>
		<path class="st10" d="M119.7,96.3h-41v2.3h41V96.3z"/>
		<path class="st10" d="M103.9,101H78.6v2.3h25.3V101z"/>
		<path class="st10" d="M102.3,44.8h-7.9v2.3h7.9V44.8z"/>
		<path class="st10" d="M114.9,44.8h-6.3v2.3h6.3V44.8z"/>
		<path class="st10" d="M127.6,44.8h-6.3v2.3h6.3V44.8z"/>
		<path class="st10" d="M140.2,44.8h-6.3v2.3h6.3V44.8z"/>
		<path class="st12" d="M90.5,47.9H76.3v0.8h14.2V47.9z"/>
		<path class="st12" d="M76.3,34.7H56.5v0.8h19.7V34.7z"/>
		<path class="st12" d="M90.5,73.7H76.3v0.8h14.2V73.7z"/>
		<path class="st14" d="M169.4,12.8h-3.2V16h3.2V12.8z"/>
		<path class="st14" d="M152,12.8h-3.2V16h3.2V12.8z"/>
		<path class="st14" d="M175.7,12.8h-3.2V16h3.2V12.8z"/>
		<path class="st14" d="M182,12.8h-3.2V16h3.2V12.8z"/>
		<path class="st14" d="M188.4,12L188.4,12c-1.3,0-2.4,1-2.4,2.3c0,1.3,1,2.3,2.3,2.3h0c1.3,0,2.3-1,2.3-2.3
			C190.7,13.1,189.7,12,188.4,12z"/>
		<path class="st12" d="M157.6,12L157.6,12c-1.3,0-2.4,1-2.4,2.3c0,1.3,1,2.3,2.3,2.3h0c1.3,0,2.3-1,2.3-2.3
			C159.9,13.1,158.9,12,157.6,12z"/>
		<path class="st15" d="M140,109.5h25v0.3c0,1-0.3,1.9-0.9,2.6c-0.6,0.7-1.4,1.1-2.2,1.1h-18.6c-0.8,0-1.7-0.4-2.2-1.1
			c-0.6-0.7-0.9-1.6-0.9-2.6L140,109.5L140,109.5z"/>
		<path class="st16" d="M151,114.5c17.7,0,32-14.3,32-32s-14.3-32-32-32s-32,14.3-32,32S133.3,114.5,151,114.5z"/>
		<path class="st17" d="M216.2,147.5c-0.9,0.9-2,1.7-3.2,2.2s-2.5,0.8-3.8,0.8c-1.3,0-2.6-0.2-3.8-0.7c-1.2-0.5-2.3-1.2-3.3-2.1
			L171,117.8l13.8-14.3l31.1,29.9c0.9,0.9,1.7,2,2.2,3.2c0.5,1.2,0.8,2.5,0.8,3.8c0,1.3-0.2,2.6-0.7,3.8
			C217.8,145.4,217.1,146.5,216.2,147.5z"/>
		<path class="st18" d="M151,42.5c-8.1,0-16,2.4-22.8,6.8c-6.7,4.4-12,10.8-15.1,18.2c-3.1,7.4-3.9,15.5-2.3,23.4
			c1.6,7.9,5.5,15.1,11.2,20.7c5.7,5.7,13,9.5,21,11.1c8,1.6,16.2,0.8,23.7-2.3c7.5-3.1,13.9-8.3,18.4-14.9
			C189.6,98.9,192,91,192,83c0-5.3-1.1-10.6-3.1-15.5c-2.1-4.9-5.1-9.4-8.9-13.1c-3.8-3.8-8.3-6.7-13.3-8.8S156.4,42.5,151,42.5z
			 M151,112.6c-5.9,0-11.7-1.7-16.6-5c-4.9-3.2-8.8-7.9-11-13.3c-2.3-5.4-2.9-11.4-1.7-17.1c1.2-5.7,4-11,8.2-15.1
			c4.2-4.1,9.5-7,15.3-8.1c5.8-1.1,11.8-0.6,17.3,1.7c5.5,2.2,10.1,6,13.4,10.9c3.3,4.9,5,10.6,5,16.4c0,3.9-0.8,7.7-2.3,11.3
			c-1.5,3.6-3.7,6.9-6.5,9.6c-2.8,2.7-6.1,4.9-9.7,6.4C158.8,111.8,154.9,112.6,151,112.6L151,112.6z"/>
		<path class="st19" d="M161.1,48.3v70.6"/>
		<path class="st19" d="M154.2,48.3v70.6"/>
		<path class="st19" d="M147.3,48.3v70.6"/>
		<path class="st19" d="M140.4,48.3v70.6"/>
		<path class="st19" d="M133.5,48.3v70.6"/>
		<path class="st19" d="M126.5,48.3v70.6"/>
		<path class="st19" d="M174.9,48.3v70.6"/>
		<path class="st19" d="M168,48.3v70.6"/>
		<path class="st19" d="M115.4,73.2H186"/>
		<path class="st19" d="M115.4,80.1H186"/>
		<path class="st19" d="M115.4,87H186"/>
		<path class="st19" d="M115.4,94H186"/>
		<path class="st19" d="M115.4,100.9H186"/>
		<path class="st19" d="M115.4,107.8H186"/>
		<path class="st19" d="M115.4,59.4H186"/>
		<path class="st19" d="M115.4,66.3H186"/>
		
			<linearGradient id="SVGID_3_" gradientUnits="userSpaceOnUse" x1="270.7781" y1="169.3844" x2="74.3801" y2="17.8346" gradientTransform="matrix(1 0 0 -1 0 148)">
			<stop  offset="0.42" style="stop-color:#D7E7F1;stop-opacity:0.8"/>
			<stop  offset="0.43" style="stop-color:#D7E7F1;stop-opacity:0.76"/>
			<stop  offset="0.5" style="stop-color:#D7E7F1;stop-opacity:0.44"/>
			<stop  offset="0.57" style="stop-color:#D7E7F1;stop-opacity:0.2"/>
			<stop  offset="0.61" style="stop-color:#D7E7F1;stop-opacity:6.000000e-02"/>
			<stop  offset="0.64" style="stop-color:#D7E7F1;stop-opacity:0"/>
		</linearGradient>
		<path class="st20" d="M171.1,50.3l-55.7,43l5,6.5l55.7-43L171.1,50.3z"/>
		
			<linearGradient id="SVGID_4_" gradientUnits="userSpaceOnUse" x1="9413.9043" y1="7206.8105" x2="6705.9048" y2="5116.8105" gradientTransform="matrix(1 0 0 -1 0 148)">
			<stop  offset="0.42" style="stop-color:#D7E7F1;stop-opacity:0.8"/>
			<stop  offset="0.43" style="stop-color:#D7E7F1;stop-opacity:0.76"/>
			<stop  offset="0.5" style="stop-color:#D7E7F1;stop-opacity:0.44"/>
			<stop  offset="0.57" style="stop-color:#D7E7F1;stop-opacity:0.2"/>
			<stop  offset="0.61" style="stop-color:#D7E7F1;stop-opacity:6.000000e-02"/>
			<stop  offset="0.64" style="stop-color:#D7E7F1;stop-opacity:0"/>
		</linearGradient>
		<path class="st21" d="M180.2,62.5l-55.7,43l5,6.5l55.7-43L180.2,62.5z"/>
		<path class="st22" d="M170.5,111.2l-4.7,2.5c-0.7,0.4-0.9,1.2-0.6,1.9l0,0c0.4,0.7,1.2,0.9,1.9,0.6l4.7-2.5
			c0.7-0.4,0.9-1.2,0.6-1.9l0,0C172,111.1,171.2,110.8,170.5,111.2z"/>
		<path class="st22" d="M175.5,109.5c0.8,0,1.5-0.7,1.5-1.5s-0.7-1.5-1.5-1.5s-1.5,0.7-1.5,1.5S174.7,109.5,175.5,109.5z"/>
		<path class="st22" d="M179.5,104.5c0.8,0,1.5-0.7,1.5-1.5s-0.7-1.5-1.5-1.5s-1.5,0.7-1.5,1.5S178.7,104.5,179.5,104.5z"/>
		<path class="st23" d="M151,57.5l-1.1,2.9l-2.9,1.1l2.9,1.1l1.1,2.9l1.1-2.9l2.9-1.1l-2.9-1.1L151,57.5z"/>
		<path class="st3" d="M133,69.5l-1.1,2.6L129,73l2.9,0.9l1.1,2.6l1.1-2.6L137,73l-2.9-0.9L133,69.5L133,69.5z"/>
		<path class="st24" d="M154.2,86.3c1,1,2.4,1.8,3.8,2.1c1.5,0.3,3,0.1,4.3-0.4c1.4-0.6,2.5-1.5,3.4-2.8c0.8-1.2,1.3-2.7,1.3-4.2
			s-0.4-2.9-1.3-4.2c-0.8-1.2-2-2.2-3.4-2.8c-1.4-0.6-2.9-0.7-4.3-0.4c-1.5,0.3-2.8,1-3.8,2.1c-1.4,1.4-2.2,3.3-2.2,5.3
			S152.8,84.9,154.2,86.3L154.2,86.3z"/>
		<path class="st25" d="M145,72.5l4.2,19.3l18.8,3.7"/>
		<path class="st25" d="M133,83.5l20.2,4.2l3.8,18.8"/>
		<path class="st24" d="M139.8,100.7c4.9,4.9,12.2,5.6,19.2-1.3c7-7,6-14,1.1-18.9c-5-4.9-11.9-5.9-18.9,1.1
			C134.2,88.5,134.9,95.8,139.8,100.7z"/>
		<path class="st26" d="M145.5,72c0,0-0.1,11.2,5.8,17.1c1.4,1.4,3,2.6,4.8,3.4c3.4,1.7,12.8,2.9,12.8,2.9"/>
		<path class="st27" d="M151.2,89.6l-11.9,11.9"/>
	</g>
</g>
</svg>
