<?xml version="1.0" encoding="utf-8"?>
<!-- Generator: Adobe Illustrator 24.2.3, SVG Export Plug-In . SVG Version: 6.00 Build 0)  -->
<svg version="1.1" id="Layer_1" xmlns="http://www.w3.org/2000/svg" xmlns:xlink="http://www.w3.org/1999/xlink" x="0px" y="0px"
	 viewBox="0 0 248 148" style="enable-background:new 0 0 248 148;" xml:space="preserve">
<style type="text/css">
	.st0{clip-path:url(#SVGID_2_);}
	.st1{fill:#3B5259;}
	.st2{fill:#F48657;}
	.st3{fill:#87759B;}
	.st4{fill:#B2CAD4;}
	.st5{opacity:0.2;fill:#FFFFFF;enable-background:new    ;}
	.st6{fill:#ECE5E0;}
	.st7{fill:#EDE7E2;}
	.st8{fill:#FF6C37;}
	.st9{opacity:0.3;fill:#CBC6C1;enable-background:new    ;}
	.st10{fill:#726B65;}
	.st11{fill:#EF6A37;}
	.st12{opacity:0.4;fill:#FFFFFF;enable-background:new    ;}
	.st13{fill:#DF5B36;}
	.st14{opacity:0.3;}
	.st15{opacity:0.3;fill:#ECE5E0;enable-background:new    ;}
	.st16{opacity:0.34;fill:#EFF3F7;enable-background:new    ;}
	.st17{opacity:0.4;}
	.st18{fill:#CECAC7;}
	.st19{fill:#E66037;}
	.st20{fill:#F16B39;}
	.st21{opacity:0.3;fill:#E7EBEF;enable-background:new    ;}
	.st22{opacity:0.9;}
	.st23{opacity:0.9;fill:#726B65;enable-background:new    ;}
	.st24{opacity:0.3;fill:#EDE7E2;enable-background:new    ;}
	.st25{fill:#EB816F;}
	.st26{fill:#FF7D4B;}
	.st27{fill:#F38963;}
	.st28{fill:#E77F60;}
	.st29{fill:#4A3E5E;}
	.st30{fill:#7D728D;}
	.st31{fill:#5F5278;}
</style>
<g>
	<defs>
		<rect id="SVGID_1_" width="248" height="148"/>
	</defs>
	<clipPath id="SVGID_2_">
		<use xlink:href="#SVGID_1_"  style="overflow:visible;"/>
	</clipPath>
	<g class="st0">
		<path class="st1" d="M242.1,25.4c5.5,4.4,6.9,11.1,5.2,22.2c-1.8,10.8-6.6,26-15.6,41.7c-16.8,32-55.1,63.4-101.8,58.2
			c-46.6-4.7-82.2-34.1-98.8-51.9c-17.4-20-15.8-28.6-6.6-41.9c10-12.4,20.5-25.9,35.9-36c15.1-10.2,35-16.9,58.9-17.5
			c23.9-1.5,44.5,6,66.9,10.6C207.8,16.1,231.1,18.5,242.1,25.4z"/>
		<path class="st2" d="M34.6,57.1l-1.3,2.8l0.4,3L31,61.6l-3,0.4l1.3-2.8l-0.4-3l2.8,1.3L34.6,57.1z"/>
		<path class="st3" d="M236.8,39.4l1.4,1.5l2,0.5l-1.5,1.4l-0.5,2l-1.4-1.5l-2-0.5l1.5-1.4L236.8,39.4z"/>
		<path class="st3" d="M44.8,67.8L44,69.7l0.3,2l-1.9-0.9l-2,0.3l0.8-1.9l-0.3-2l1.9,0.9L44.8,67.8z"/>
		<path class="st4" d="M229.8,47.3l1.1,1.2l1.6,0.4l-1.2,1.1l-0.4,1.6l-1.1-1.2l-1.6-0.4l1.2-1.1L229.8,47.3z"/>
		<path class="st5" d="M134.3,121.7c28.2,0,51-22.9,51-51.1s-22.8-51.1-51-51.1c-28.2,0-51,22.9-51,51.1S106.1,121.7,134.3,121.7z"
			/>
		<path class="st5" d="M134.3,107.2c20.2,0,36.6-16.4,36.6-36.6S154.5,34,134.3,34c-20.2,0-36.6,16.4-36.6,36.6
			S114.1,107.2,134.3,107.2z"/>
		<path class="st6" d="M198.7,65.1c-2.8,2.4-6,4.4-9.3,6c-7.1,3.4-18.6,6.4-33.6,1.8l-0.2-0.1c-1.5-0.6-2.7-1.7-3.4-3.1
			c-0.7-1.4-0.8-3.1-0.3-4.6c0.5-1.5,1.6-2.8,3-3.5c1.4-0.8,3-0.9,4.6-0.5c7.2,2.2,14,2.4,20.3,0.6c4-1.2,7.7-3.1,10.8-5.8
			c0.4-0.3,0.7-0.6,0.9-0.8l-0.1-0.1l0.9-0.8l0.6-0.7l9.4,8l-0.7,0.8C200.8,63.3,199.8,64.2,198.7,65.1L198.7,65.1z"/>
		<path class="st6" d="M199.8,65.9c-1.2,0.7-2.4,1.3-3.7,1.8l-1,0.4l-4.4-11.5l0.8-0.3l1-0.6l0,0.1c0.3-0.2,0.7-0.3,1.1-0.6
			c3.6-2.1,6.7-4.9,9.1-8.3c3.8-5.3,5.9-11.9,6.2-19.4c0.1-1.6,0.8-3.1,2-4.2c1.2-1.1,2.7-1.7,4.3-1.6c1.6,0,3.1,0.7,4.2,1.8
			c1.1,1.1,1.8,2.6,1.8,4.2c0,0.1,0,0.2,0,0.2c-0.6,15.7-7.3,25.6-12.9,31.2C205.9,61.8,203,64.1,199.8,65.9L199.8,65.9z"/>
		<path class="st7" d="M240.9,97.6l-26.5-36.1l-5.2-6.7c-4.3-5.5-11.6-7.3-17.1-4.1l-4.4,2.5c-5.5,3.2-7.7,10.3-5.1,16.8l22.2,49.9
			c0.7,1.8,2.2,3.3,4,4.1c1.8,0.8,3.9,0.8,5.7,0.1c0.9-0.4,1.7-0.9,2.4-1.6c0.7-0.7,1.3-1.5,1.6-2.4c0.4-0.9,0.6-1.9,0.6-2.8
			c0-1-0.2-2-0.5-2.9l-8-20.7c-0.2-0.6-0.1-1.3,0.1-1.9c0.3-0.6,0.7-1.1,1.3-1.4l0,0c0.6-0.3,1.2-0.5,1.9-0.4
			c0.7,0.1,1.3,0.4,1.7,0.9l13.5,15.9c0.6,0.8,1.3,1.4,2.2,1.9c0.9,0.5,1.8,0.8,2.8,0.9c1,0.1,2,0,2.9-0.2c0.9-0.3,1.8-0.7,2.6-1.3
			l0,0c1.6-1.2,2.6-3,2.8-5C242.7,101.1,242.1,99.1,240.9,97.6L240.9,97.6z"/>
		<path class="st8" d="M203.5,57l-2.6,1.5c-0.6,0.3-0.8,1.1-0.5,1.7l1.5,2.6c0.3,0.6,1.1,0.8,1.7,0.5l2.6-1.5
			c0.6-0.3,0.8-1.1,0.5-1.7l-1.5-2.6C204.8,56.9,204.1,56.6,203.5,57z"/>
		<path class="st9" d="M194.3,59.4c8.4-4.8,11-16,5.9-24.9c-5.1-9-16.1-12.3-24.5-7.5c-8.4,4.8-11,16-5.9,24.9
			C175,60.9,185.9,64.3,194.3,59.4z"/>
		<path class="st10" d="M174.8,22l-1.5,0.8l3.4,6.4l1.5-0.8L174.8,22z"/>
		<path class="st10" d="M172.5,56.3l-2.5,0.7c-0.4,0.1-0.8,0.1-1.3,0c-0.4-0.1-0.8-0.4-1-0.7l-1.3-1.8c-0.3-0.3-0.4-0.8-0.4-1.2
			c0-0.4,0.1-0.9,0.3-1.2l1.4-2.1L172.5,56.3z"/>
		<path class="st10" d="M202.8,40.2l2-1.6c0.3-0.3,0.6-0.6,0.7-1.1c0.1-0.4,0.1-0.9,0-1.3l-0.7-2.1c-0.1-0.4-0.4-0.8-0.8-1
			c-0.3-0.3-0.8-0.4-1.2-0.4l-2.5,0L202.8,40.2z"/>
		<path class="st6" d="M184.6,61.2c10.3,0,18.7-8.4,18.7-18.7c0-10.3-8.4-18.7-18.7-18.7c-10.3,0-18.7,8.4-18.7,18.7
			C165.9,52.8,174.3,61.2,184.6,61.2z"/>
		<path class="st11" d="M173,23.4c1.5,0,2.7-1.2,2.7-2.7s-1.2-2.7-2.7-2.7c-1.5,0-2.7,1.2-2.7,2.7S171.5,23.4,173,23.4z"/>
		<path class="st12" d="M172.4,19.4c0.4-0.2,0.6-0.6,0.4-0.8c-0.1-0.2-0.5-0.2-0.9,0c-0.4,0.2-0.6,0.6-0.4,0.8
			S172.1,19.6,172.4,19.4z"/>
		<path class="st13" d="M173.9,22c-0.5,0.3-1.1,0.4-1.6,0.4c-0.6,0-1.1-0.2-1.6-0.5c0.3,0.6,0.9,1.1,1.5,1.3c0.7,0.2,1.4,0.2,2-0.1
			s1.1-0.8,1.4-1.4c0.3-0.6,0.3-1.3,0.1-2c-0.1,0.5-0.3,1-0.6,1.4C174.7,21.5,174.3,21.8,173.9,22L173.9,22z"/>
		<g class="st14">
			<g class="st14">
				<path class="st15" d="M204.2,32.2c0,0-10.7,22.7-38.4,23.2l12.4,17.4l39-31.6L204.2,32.2z"/>
			</g>
		</g>
		<path class="st4" d="M199,37.1c2.9,5.4,0,14.6-7.4,18.5c-7.4,4-16.6,1.2-19.5-4.2c-2.9-5.4-4.9-10,8.2-17
			C192.9,27.7,196.2,31.7,199,37.1z"/>
		<path class="st16" d="M175.4,42.1c0.4-1.3-1.5-2-2.3-1c-2.3,3.1-1.4,6.4,0.4,9.7c1,2,3,3.5,5.4,4.5c0.1,0,0.2,0,0.2,0
			c0.1,0,0.2-0.1,0.2-0.1c0-0.1,0.1-0.2,0.1-0.2c0-0.1-0.1-0.2-0.1-0.2C176,51.3,173.8,47.6,175.4,42.1z"/>
		<path class="st12" d="M213.4,25.5c0.6-0.3,0.9-0.8,0.7-1.2c-0.2-0.3-0.8-0.3-1.4,0c-0.6,0.3-0.9,0.8-0.7,1.2
			C212.2,25.8,212.8,25.8,213.4,25.5z"/>
		<path class="st12" d="M156.4,65.8c0.4-0.9,0.2-1.9-0.3-2.1c-0.5-0.2-1.3,0.4-1.7,1.3c-0.4,0.9-0.2,1.9,0.3,2.1
			S156,66.8,156.4,65.8z"/>
		<path class="st7" d="M107.5,75L77.2,93.2c-3.2,2-7.7,0.5-9.7-3.2c-2.1-3.7-1.1-8.3,2.3-10L101,63.5c2.8-1.5,6.5-0.2,8.2,3
			C111,69.6,110.2,73.4,107.5,75z"/>
		<g class="st17">
			<g class="st17">
				<path class="st7" d="M110,71.3c-0.1,0.8-0.4,1.5-0.9,2.1s-1,1.2-1.7,1.6L77.2,93.2c-3.2,2-7.7,0.5-9.7-3.2
					c-2.1-3.7-1.1-8.3,2.3-10l25.7-13.5C99,70.7,103.4,73.5,110,71.3z"/>
			</g>
		</g>
		<path class="st7" d="M11.8,124.7l21.1-8.1l-21.6,17.1c-2.7,2.4-3.6,6-2.3,9l0.1,0.1c2,4.7,8.4,6.1,13.1,2.9l51.7-35.5
			c5-3.4,7.1-9.3,5.2-14.4l-1.6-4.1c-2.6-6.9-11.4-9.7-18.7-5.9L4.6,110.5c-3.7,2.1-5.5,6.1-4.3,9.7C1.8,124.5,7,126.6,11.8,124.7z"
			/>
		<path class="st18" d="M73.7,61.1l-7.1-11.9l-1.5,0.9L72.2,62L73.7,61.1z"/>
		<path class="st19" d="M65.6,53.3c2.2,0,3.9-1.7,3.9-3.9s-1.7-3.9-3.9-3.9c-2.2,0-3.9,1.7-3.9,3.9S63.5,53.3,65.6,53.3z"/>
		<path class="st20" d="M68.3,46.5L68.3,46.5c-0.8-0.7-1.8-1.1-2.8-1.1c-1,0-2,0.5-2.7,1.2c0,0.1-0.1,0.1-0.1,0.2
			c-0.6,1.7,0.4,3.9,2.3,5c1.2,0.7,2.5,0.7,3.4,0.3c0.7-0.8,1.1-1.8,1.1-2.8C69.5,48.2,69.1,47.2,68.3,46.5L68.3,46.5z"/>
		<path class="st7" d="M79.8,93.3c10.4,0,18.8-8.4,18.8-18.8s-8.4-18.8-18.8-18.8C69.4,55.6,61,64.1,61,74.5S69.4,93.3,79.8,93.3z"
			/>
		<path class="st4" d="M97.5,81c0,0,2-4.5,1-11c-0.8-5-6-10.5-7.5-10.5c-4,0-7.3,3.6-7.3,10C83.7,75.8,91.1,81,97.5,81z"/>
		<g class="st17">
			<g class="st17">
				<path class="st7" d="M63.8,75.2c-1-1.5-1.8-3.2-2.4-4.9c-1,4.7-0.3,9.5,2.1,13.6c2.4,4.1,6.3,7.2,10.8,8.5s9.5,0.9,13.7-1.2
					s7.6-5.8,9.2-10.3c-0.6,0.5-1.2,0.9-1.8,1.3c-5.2,3.3-11.4,4.4-17.3,3C72.2,84.1,67.1,80.4,63.8,75.2L63.8,75.2z"/>
			</g>
		</g>
		<g class="st14">
			<path class="st21" d="M93.5,63.1c0.1,0.1,0.2,0.2,0.2,0.3c0.1,0.1,0.2,0.2,0.2,0.3c0.1,0.2,0.3,0.3,0.4,0.5
				c0.3,0.4,0.5,0.7,0.7,1.1c0.5,0.7,0.9,1.5,1.2,2.3c0.3,0.8,0.6,1.6,0.8,2.4c0.2,0.8,0.4,1.7,0.4,2.5c0,0.1,0,0.2-0.1,0.3
				c-0.1,0.1-0.2,0.2-0.3,0.2c-0.1,0-0.2,0-0.3-0.1c-0.1-0.1-0.2-0.2-0.2-0.3v0c-0.1-0.8-0.3-1.6-0.6-2.3c-0.5-1.5-1.2-2.9-2.2-4.2
				c-0.2-0.3-0.5-0.6-0.7-0.9c-0.1-0.1-0.3-0.3-0.4-0.4c-0.1-0.1-0.1-0.1-0.2-0.2c-0.1-0.1-0.1-0.1-0.2-0.2
				c-0.2-0.1-0.3-0.3-0.3-0.6c0-0.2,0.1-0.4,0.2-0.6s0.3-0.3,0.6-0.3C93.1,62.8,93.3,62.9,93.5,63.1L93.5,63.1z"/>
			<path class="st21" d="M97,74.8c-0.1,0-0.1-0.1-0.1-0.2c0-0.1,0-0.1,0-0.2c0-0.1,0-0.1,0.1-0.2c0.1-0.1,0.1-0.1,0.2-0.1
				c0.1,0,0.2,0,0.2,0c0.1,0,0.1,0.1,0.2,0.1c0,0.1,0.1,0.1,0.1,0.2c0,0.1,0,0.2-0.1,0.2c-0.1,0.1-0.1,0.1-0.2,0.2
				C97.2,74.9,97.1,74.9,97,74.8L97,74.8z"/>
		</g>
		<g class="st22">
			<path class="st23" d="M77.5,79.8c1.8,0,3.2-1.4,3.2-3.2c0-1.8-1.4-3.2-3.2-3.2s-3.2,1.4-3.2,3.2C74.3,78.4,75.7,79.8,77.5,79.8z"
				/>
			<path class="st24" d="M77.5,78.8c1.2,0,2.1-0.9,2.1-2.1s-0.9-2.1-2.1-2.1c-1.2,0-2.1,0.9-2.1,2.1S76.3,78.8,77.5,78.8z"/>
		</g>
		<path class="st8" d="M162.9,54.5l0.1,31.6l-29.2,16.9l-0.1-31.6L162.9,54.5z"/>
		<path class="st25" d="M133.8,103.1l-28.2-16.4L105.5,55l28.2,16.4L133.8,103.1z"/>
		<path class="st19" d="M133.8,103.1l-28.2-16.4L105.5,55l28.2,16.4L133.8,103.1z"/>
		<path class="st26" d="M133.7,71.4L105.5,55l29.2-16.9l28.2,16.4L133.7,71.4z"/>
		<path class="st7" d="M115.6,96.8l-38.9,10.7c-1,0.3-2.1,0.3-3.1,0.2c-1-0.1-2-0.5-2.9-1s-1.7-1.2-2.3-2.1
			c-0.6-0.8-1.1-1.8-1.3-2.8l0,0c-0.3-1-0.3-2.1-0.2-3.1c0.2-1,0.5-2,1.1-2.9c0.5-0.9,1.3-1.7,2.1-2.3c0.8-0.6,1.8-1,2.8-1.3
			l39.4-8.7c1.7-0.4,3.5,0,5,0.9c1.5,0.9,2.6,2.4,3,4.2c0.4,1.7,0.2,3.5-0.7,5.1C118.8,95.2,117.3,96.4,115.6,96.8L115.6,96.8z"/>
		<g class="st17">
			<path class="st7" d="M79.8,90.5c0,0-3.6,5.5,0.4,11.1c1.4,2,17.4-1.5,34-4.4c0.4-0.1-34.4,9.4-34.4,9.4l-3.1,0.8l-0.5,0.9
				l-0.5,0.5c-0.7,0.7-1.5,1.4-2.4,1.9L55.4,123l-28.8,19.7l26.8-21.5l-2.9-9.1l-1.4,0.4c-1,0.2-2,0.2-2.9-0.1
				c-0.9-0.3-1.8-0.8-2.5-1.6l-8.1-9.1c-0.1-0.2-0.2-0.4-0.3-0.6s-0.1-0.4,0-0.6c0.1-0.2,0.2-0.4,0.3-0.6c0.1-0.2,0.3-0.3,0.5-0.4
				l0,0l15.1,11l20-18.4L79.8,90.5z"/>
		</g>
		<path class="st27" d="M55.2,123.4c0.2-0.1,0.4-0.2,0.5-0.4c0.1-0.2,0.2-0.3,0.3-0.6c0.1-0.2,0.1-0.4,0-0.6s-0.1-0.4-0.2-0.6
			c-1.6-2.5-4.9-12.6-1.6-18.2c4.5-7.7-3.9,2.2-3.9,2.2s-2,10.5,3.1,17.7c0.2,0.3,0.5,0.5,0.8,0.6C54.5,123.6,54.9,123.6,55.2,123.4
			z"/>
		<path class="st27" d="M77.2,108.4c-0.2,0.1-0.4,0.2-0.6,0.2c-0.2,0-0.4,0-0.6-0.1c-0.2-0.1-0.4-0.2-0.5-0.3
			c-0.2-0.1-0.3-0.3-0.4-0.5C73.9,105,67.5,96.5,61,96c-8.9-0.7,4.1-2,4.1-2s9.7,4.3,12.7,12.6c0.1,0.3,0.1,0.7,0,1
			C77.7,108,77.5,108.3,77.2,108.4L77.2,108.4z"/>
		<path class="st28" d="M36.7,100.9l7.3,8.3c2,2.2,6.6,2.3,10.2,0.2l16.9-10.6c3.6-2.2,4.7-5.1,2.8-7.3l-8.2-9.3
			c-2-2.3-6.7-2.4-10.4-0.2l-16.4,9.8C35.2,94,34.7,98.6,36.7,100.9z"/>
		<path class="st27" d="M36.9,96.2l8.2,9.1c1.3,1.5,4.5,1.6,6.9,0.1l21.1-12.6c0.7-0.4,1-1.2,0.6-1.6l-8.5-9.6c-1.7-2-5.7-2-8.9-0.1
			L39.4,91.5C37.1,92.9,35.6,94.7,36.9,96.2z"/>
		<path class="st29" d="M40.2,91l9.4,10.7c0.7,0.8,2.3,0.8,3.6,0.1l0.7-0.4c1.3-0.8,1.7-2,1-2.8l-9.4-10.7L40.2,91z"/>
		<path class="st7" d="M57.4,97.1c0.9-0.3,1.4-1.1,1.2-1.7c-0.2-0.6-1.1-0.8-2-0.5c-0.9,0.3-1.4,1.1-1.2,1.7
			C55.6,97.2,56.5,97.4,57.4,97.1z"/>
		<path class="st7" d="M54.7,94.1c0.9-0.3,1.4-1.1,1.2-1.7c-0.2-0.6-1.1-0.8-2-0.5c-0.9,0.3-1.4,1.1-1.2,1.7
			C52.9,94.2,53.8,94.4,54.7,94.1z"/>
		<path class="st30" d="M50.2,100.2l0.5,0.5c0.1,0.1,0.2,0.1,0.4,0.1s0.3,0,0.4-0.1l1.8-1.1c0.3-0.2,0.4-0.4,0.2-0.6L53,98.5
			c-0.1-0.1-0.2-0.1-0.4-0.1c-0.1,0-0.3,0-0.4,0.1l-1.8,1.1C50.1,99.7,50,100,50.2,100.2z"/>
		<path class="st30" d="M48,97.7l0.5,0.5c0.1,0.1,0.2,0.1,0.4,0.1c0.1,0,0.3,0,0.4-0.1l1.8-1.1c0.3-0.2,0.4-0.4,0.2-0.6L50.8,96
			c-0.1-0.1-0.2-0.1-0.4-0.1c-0.1,0-0.3,0-0.4,0.1l-1.8,1.1C48,97.2,47.9,97.5,48,97.7z"/>
		<path class="st30" d="M45.8,95.2l0.5,0.5c0.1,0.1,0.2,0.1,0.4,0.1c0.1,0,0.3,0,0.4-0.1l1.8-1.1c0.3-0.2,0.4-0.4,0.2-0.6l-0.5-0.5
			c-0.1-0.1-0.2-0.1-0.4-0.1c-0.1,0-0.3,0-0.4,0.1L46,94.6C45.8,94.8,45.7,95,45.8,95.2z"/>
		<path class="st30" d="M43.6,92.7l0.5,0.5c0.1,0.1,0.2,0.1,0.4,0.1c0.1,0,0.3,0,0.4-0.1l1.8-1.1c0.3-0.2,0.4-0.4,0.2-0.6l-0.5-0.5
			c-0.1-0.1-0.2-0.1-0.4-0.1c-0.1,0-0.3,0-0.4,0.1l-1.8,1.1C43.6,92.3,43.5,92.6,43.6,92.7z"/>
		<path class="st31" d="M48.7,88.1l2.8,3.2c0.2,0.2,0.7,0.2,1,0l0.5-0.3c0.4-0.2,0.5-0.6,0.3-0.8L50.5,87c-0.2-0.2-0.7-0.2-1,0
			L49,87.3C48.6,87.6,48.5,87.9,48.7,88.1z"/>
		<path class="st31" d="M51.1,83.4l6.9,7.8c2.1,2.4,6.9,2.5,10.8,0.2l3.3-2L61.4,77.3L51.1,83.4z"/>
	</g>
</g>
</svg>
